<svg width="1024" height="277" viewBox="0 0 1024 277" fill="none" xmlns="http://www.w3.org/2000/svg">
<g clip-path="url(#clip0_107_2)">
<path d="M140.803 261.662C125.399 264.367 109.724 265.178 93.509 267.338L44.051 122.482V273.555C28.647 275.176 14.594 277.338 0 279.5V2.758H41.08L97.292 159.779V2.758H140.803V261.662ZM195.5 169.5C189.5 203.5 195.5 226.5 221.5 224.5C225.5 226.53 282 238 282 148.5L291.5 10C299 11.5 303 12 312.5 14.258L298 242.476L221.5 238H164L186 -1H210.5L204.5 64.5L195.5 169.5ZM463.218 46H418.356V244.908C403.762 244.908 389.168 244.908 375.117 245.447V46H330.255V2.758H463.22L463.218 46ZM533.484 101.132H592.671V144.372H533.484V242.476H491.051V2.758H611.859V45.999H533.484V101.132ZM682.125 204.639C706.719 205.178 731.581 207.073 755.635 208.422V251.123C716.989 248.689 678.342 246.26 638.885 245.447V2.758H682.125V204.639ZM792.119 254.096C805.902 254.908 820.496 255.719 834.549 257.338V2.758H792.119V254.096ZM1024 2.758L969.137 134.373L1024 279.5C1007.78 277.338 991.568 274.365 975.352 271.662L944.274 191.668L912.657 265.178C896.979 262.473 881.845 261.662 866.173 259.5L921.845 132.75L871.576 2.758H918.058L946.435 75.457L976.705 2.758H1024Z" fill="#D81F26"/>
</g>
<defs>
<clipPath id="clip0_107_2">
<rect width="1024" height="276.742" fill="white"/>
</clipPath>
</defs>
</svg>
